<svg xmlns="http://www.w3.org/2000/svg" width="128" height="128" viewBox="0 0 128 128">
  <defs>
    <linearGradient id="bgGrad" x1="0%" y1="0%" x2="100%" y2="100%">
      <stop offset="0%" style="stop-color:#ee4d2d"/>
      <stop offset="100%" style="stop-color:#ff6633"/>
    </linearGradient>
  </defs>
  
  <!-- Background -->
  <rect width="128" height="128" rx="24" fill="url(#bgGrad)"/>
  
  <!-- Printer Icon -->
  <g transform="translate(24, 24)">
    <!-- Paper stack (input) -->
    <rect x="16" y="0" width="48" height="28" rx="4" fill="white"/>
    <rect x="20" y="4" width="40" height="2" fill="#ee4d2d" opacity="0.3"/>
    <rect x="20" y="8" width="36" height="2" fill="#ee4d2d" opacity="0.3"/>
    <rect x="20" y="12" width="40" height="2" fill="#ee4d2d" opacity="0.3"/>
    
    <!-- Printer body -->
    <rect x="8" y="24" width="64" height="36" rx="6" fill="white"/>
    
    <!-- Printer slot -->
    <rect x="16" y="28" width="48" height="4" rx="2" fill="#333"/>
    
    <!-- Status light -->
    <circle cx="60" cy="44" r="4" fill="#4caf50"/>
    
    <!-- Control buttons -->
    <rect x="16" y="40" width="8" height="8" rx="2" fill="#ddd"/>
    <rect x="28" y="40" width="8" height="8" rx="2" fill="#ddd"/>
    
    <!-- Output paper (label) -->
    <rect x="16" y="56" width="48" height="24" rx="4" fill="#fff5f0" stroke="#ee4d2d" stroke-width="2"/>
    
    <!-- Barcode on label -->
    <g fill="#333">
      <rect x="20" y="62" width="2" height="12"/>
      <rect x="24" y="62" width="1" height="12"/>
      <rect x="27" y="62" width="3" height="12"/>
      <rect x="32" y="62" width="1" height="12"/>
      <rect x="35" y="62" width="2" height="12"/>
      <rect x="39" y="62" width="1" height="12"/>
      <rect x="42" y="62" width="3" height="12"/>
      <rect x="47" y="62" width="2" height="12"/>
      <rect x="51" y="62" width="1" height="12"/>
      <rect x="54" y="62" width="2" height="12"/>
      <rect x="58" y="62" width="1" height="12"/>
    </g>
  </g>
</svg>
